<svg width="25" height="25" viewBox="0 0 25 25" fill="none" xmlns="http://www.w3.org/2000/svg">
<path d="M8.33325 4.16666H6.24992C5.67462 4.16666 5.20825 4.63303 5.20825 5.20832V19.7917C5.20825 20.367 5.67462 20.8333 6.24992 20.8333H8.33325C8.90855 20.8333 9.37492 20.367 9.37492 19.7917V5.20832C9.37492 4.63303 8.90855 4.16666 8.33325 4.16666Z" stroke="#2A3547" stroke-width="2" stroke-linecap="round" stroke-linejoin="round"/>
<path d="M12.5 4.16666H10.4167C9.84137 4.16666 9.375 4.63303 9.375 5.20832V19.7917C9.375 20.367 9.84137 20.8333 10.4167 20.8333H12.5C13.0753 20.8333 13.5417 20.367 13.5417 19.7917V5.20832C13.5417 4.63303 13.0753 4.16666 12.5 4.16666Z" stroke="#2A3547" stroke-width="2" stroke-linecap="round" stroke-linejoin="round"/>
<path d="M5.20825 8.33334H9.37492" stroke="#2A3547" stroke-width="2" stroke-linecap="round" stroke-linejoin="round"/>
<path d="M9.375 16.6667H13.5417" stroke="#2A3547" stroke-width="2" stroke-linecap="round" stroke-linejoin="round"/>
<path d="M14.3782 4.74999L16.6532 4.19791C17.2386 4.05729 17.8334 4.39583 17.9886 4.96041L21.8376 18.9375C21.9055 19.1934 21.8754 19.4654 21.7533 19.7003C21.6311 19.9351 21.4257 20.116 21.1772 20.2073L21.0386 20.25L18.7636 20.8021C18.1782 20.9427 17.5834 20.6042 17.4282 20.0396L13.5792 6.06249C13.5113 5.80661 13.5414 5.53459 13.6636 5.29972C13.7857 5.06484 13.9912 4.88403 14.2397 4.7927L14.3782 4.74999Z" stroke="#2A3547" stroke-width="2" stroke-linecap="round" stroke-linejoin="round"/>
<path d="M14.5833 9.37501L18.7499 8.33334" stroke="#2A3547" stroke-width="2" stroke-linecap="round" stroke-linejoin="round"/>
<path d="M16.6667 16.6667L20.7532 15.6458" stroke="#2A3547" stroke-width="2" stroke-linecap="round" stroke-linejoin="round"/>
</svg>
