<svg width="25" height="25" viewBox="0 0 25 25" fill="none" xmlns="http://www.w3.org/2000/svg">
<path d="M12.2876 21.8761H5.20943C4.6569 21.8761 4.12699 21.6566 3.73629 21.2659C3.34559 20.8752 3.1261 20.3453 3.1261 19.7928V7.29281C3.1261 6.74027 3.34559 6.21037 3.73629 5.81967C4.12699 5.42897 4.6569 5.20947 5.20943 5.20947H17.7094C18.262 5.20947 18.7919 5.42897 19.1826 5.81967C19.5733 6.21037 19.7928 6.74027 19.7928 7.29281V11.4595" stroke="#2A3547" stroke-width="1.75197" stroke-linecap="round" stroke-linejoin="round"/>
<path d="M18.7499 22.9166C21.0511 22.9166 22.9166 21.0511 22.9166 18.7499C22.9166 16.4487 21.0511 14.5833 18.7499 14.5833C16.4487 14.5833 14.5833 16.4487 14.5833 18.7499C14.5833 21.0511 16.4487 22.9166 18.7499 22.9166Z" stroke="#2A3547" stroke-width="1.75197" stroke-linecap="round" stroke-linejoin="round"/>
<path d="M15.6261 3.12622V7.29289" stroke="#2A3547" stroke-width="1.75197" stroke-linecap="round" stroke-linejoin="round"/>
<path d="M7.29272 3.12622V7.29289" stroke="#2A3547" stroke-width="1.75197" stroke-linecap="round" stroke-linejoin="round"/>
<path d="M3.1261 11.4595H19.7928" stroke="#2A3547" stroke-width="1.75197" stroke-linecap="round" stroke-linejoin="round"/>
<path d="M18.7499 17.1846V18.7512L19.7915 19.7929" stroke="#2A3547" stroke-width="1.75197" stroke-linecap="round" stroke-linejoin="round"/>
</svg>
