<svg width="24" height="26" viewBox="0 0 24 26" fill="none" xmlns="http://www.w3.org/2000/svg">
<path d="M8.9098 7.78152H5.9399C5.41479 7.78152 4.91118 8.00101 4.53987 8.39171C4.16856 8.78241 3.95996 9.31232 3.95996 9.86485V19.2398C3.95996 19.7924 4.16856 20.3223 4.53987 20.713C4.91118 21.1037 5.41479 21.3232 5.9399 21.3232H14.8496C15.3747 21.3232 15.8783 21.1037 16.2496 20.713C16.6209 20.3223 16.8295 19.7924 16.8295 19.2398V16.1149" stroke="#2A3547" stroke-width="2" stroke-linecap="round" stroke-linejoin="round"/>
<path d="M8.90967 16.115H11.8796L20.2943 7.26082C20.6881 6.84642 20.9094 6.28437 20.9094 5.69832C20.9094 5.11227 20.6881 4.55022 20.2943 4.13582C19.9005 3.72142 19.3663 3.48861 18.8094 3.48861C18.2524 3.48861 17.7182 3.72142 17.3244 4.13582L8.90967 12.99V16.115Z" stroke="#2A3547" stroke-width="2" stroke-linecap="round" stroke-linejoin="round"/>
<path d="M15.8394 5.69823L18.8093 8.82323" stroke="#2A3547" stroke-width="2" stroke-linecap="round" stroke-linejoin="round"/>
</svg>
