<svg width="25" height="25" viewBox="0 0 25 25" fill="none" xmlns="http://www.w3.org/2000/svg">
<path d="M13.0208 19.7917H5.20833C4.6558 19.7917 4.12589 19.5722 3.73519 19.1815C3.34449 18.7908 3.125 18.2609 3.125 17.7083V6.24999C3.125 5.69746 3.34449 5.16755 3.73519 4.77685C4.12589 4.38615 4.6558 4.16666 5.20833 4.16666H9.375L12.5 7.29166H19.7917C20.3442 7.29166 20.8741 7.51115 21.2648 7.90185C21.6555 8.29255 21.875 8.82246 21.875 9.37499V12.5" stroke="#2A3547" stroke-width="2" stroke-linecap="round" stroke-linejoin="round"/>
<path d="M17.7095 19.7917C17.7095 20.3442 17.929 20.8741 18.3197 21.2648C18.7104 21.6555 19.2403 21.875 19.7928 21.875C20.3453 21.875 20.8752 21.6555 21.2659 21.2648C21.6566 20.8741 21.8761 20.3442 21.8761 19.7917C21.8761 19.2391 21.6566 18.7092 21.2659 18.3185C20.8752 17.9278 20.3453 17.7083 19.7928 17.7083C19.2403 17.7083 18.7104 17.9278 18.3197 18.3185C17.929 18.7092 17.7095 19.2391 17.7095 19.7917Z" stroke="#2A3547" stroke-width="2" stroke-linecap="round" stroke-linejoin="round"/>
<path d="M19.7927 16.1458V17.7083" stroke="#2A3547" stroke-width="2" stroke-linecap="round" stroke-linejoin="round"/>
<path d="M19.7927 21.875V23.4375" stroke="#2A3547" stroke-width="2" stroke-linecap="round" stroke-linejoin="round"/>
<path d="M22.95 17.9688L21.5969 18.75" stroke="#2A3547" stroke-width="2" stroke-linecap="round" stroke-linejoin="round"/>
<path d="M17.9897 20.8333L16.6355 21.6146" stroke="#2A3547" stroke-width="2" stroke-linecap="round" stroke-linejoin="round"/>
<path d="M16.6355 17.9688L17.9897 18.75" stroke="#2A3547" stroke-width="2" stroke-linecap="round" stroke-linejoin="round"/>
<path d="M21.5969 20.8333L22.9511 21.6146" stroke="#2A3547" stroke-width="2" stroke-linecap="round" stroke-linejoin="round"/>
</svg>
