<svg width="25" height="25" viewBox="0 0 25 25" fill="none" xmlns="http://www.w3.org/2000/svg">
<path d="M14.5835 8.33341V6.25008C14.5835 5.69755 14.364 5.16764 13.9733 4.77694C13.5826 4.38624 13.0527 4.16675 12.5001 4.16675H5.20846C4.65592 4.16675 4.12602 4.38624 3.73532 4.77694C3.34462 5.16764 3.12512 5.69755 3.12512 6.25008V18.7501C3.12512 19.3026 3.34462 19.8325 3.73532 20.2232C4.12602 20.6139 4.65592 20.8334 5.20846 20.8334H12.5001C13.0527 20.8334 13.5826 20.6139 13.9733 20.2232C14.364 19.8325 14.5835 19.3026 14.5835 18.7501V16.6667" stroke="#2A3547" stroke-width="2" stroke-linecap="round" stroke-linejoin="round"/>
<path d="M7.29199 12.5005H21.8753M21.8753 12.5005L18.7503 9.37549M21.8753 12.5005L18.7503 15.6255" stroke="#2A3547" stroke-width="2" stroke-linecap="round" stroke-linejoin="round"/>
</svg>
