<svg width="25" height="25" viewBox="0 0 25 25" fill="none" xmlns="http://www.w3.org/2000/svg">
<path d="M8.33374 9.37549H16.6671" stroke="#2A3547" stroke-width="2" stroke-linecap="round" stroke-linejoin="round"/>
<path d="M8.33374 13.5422H14.5837" stroke="#2A3547" stroke-width="2" stroke-linecap="round" stroke-linejoin="round"/>
<path d="M12.5324 19.3553L8.33346 21.8751V18.7501H6.25012C5.42132 18.7501 4.62646 18.4208 4.04041 17.8348C3.45436 17.2487 3.12512 16.4539 3.12512 15.6251V7.29175C3.12512 6.46295 3.45436 5.66809 4.04041 5.08204C4.62646 4.49599 5.42132 4.16675 6.25012 4.16675H18.7501C19.5789 4.16675 20.3738 4.49599 20.9598 5.08204C21.5459 5.66809 21.8751 6.46295 21.8751 7.29175V12.5001" stroke="#2A3547" stroke-width="2" stroke-linecap="round" stroke-linejoin="round"/>
<path d="M17.7091 19.7911C17.7091 20.3436 17.9286 20.8735 18.3193 21.2642C18.71 21.6549 19.2399 21.8744 19.7924 21.8744C20.345 21.8744 20.8749 21.6549 21.2656 21.2642C21.6563 20.8735 21.8758 20.3436 21.8758 19.7911C21.8758 19.2386 21.6563 18.7087 21.2656 18.318C20.8749 17.9273 20.345 17.7078 19.7924 17.7078C19.2399 17.7078 18.71 17.9273 18.3193 18.318C17.9286 18.7087 17.7091 19.2386 17.7091 19.7911Z" stroke="#2A3547" stroke-width="2" stroke-linecap="round" stroke-linejoin="round"/>
<path d="M19.7925 16.1453V17.7078" stroke="#2A3547" stroke-width="2" stroke-linecap="round" stroke-linejoin="round"/>
<path d="M19.7925 21.8745V23.437" stroke="#2A3547" stroke-width="2" stroke-linecap="round" stroke-linejoin="round"/>
<path d="M22.9505 17.9688L21.5974 18.75" stroke="#2A3547" stroke-width="2" stroke-linecap="round" stroke-linejoin="round"/>
<path d="M17.9893 20.833L16.6351 21.6143" stroke="#2A3547" stroke-width="2" stroke-linecap="round" stroke-linejoin="round"/>
<path d="M16.6351 17.9688L17.9893 18.75" stroke="#2A3547" stroke-width="2" stroke-linecap="round" stroke-linejoin="round"/>
<path d="M21.5974 20.833L22.9516 21.6143" stroke="#2A3547" stroke-width="2" stroke-linecap="round" stroke-linejoin="round"/>
</svg>
