<svg width="25" height="25" viewBox="0 0 25 25" fill="none" xmlns="http://www.w3.org/2000/svg">
<path d="M13.0026 21.8068C12.1047 22.0558 11.0256 21.6214 10.7547 20.5026C10.6881 20.2278 10.5576 19.9727 10.3738 19.7578C10.1899 19.543 9.95796 19.3747 9.69675 19.2664C9.43554 19.1582 9.15246 19.1132 8.87057 19.1351C8.58867 19.1569 8.31592 19.245 8.07451 19.3922C6.46722 20.3714 4.6266 18.5318 5.60576 16.9235C5.75274 16.6822 5.84071 16.4096 5.86252 16.1279C5.88432 15.8462 5.83935 15.5633 5.73125 15.3022C5.62316 15.0412 5.45499 14.8093 5.24042 14.6255C5.02585 14.4417 4.77093 14.3111 4.49639 14.2443C2.66722 13.8006 2.66722 11.1985 4.49639 10.7547C4.77118 10.6881 5.02636 10.5576 5.24118 10.3738C5.45599 10.1899 5.62436 9.95796 5.73258 9.69675C5.8408 9.43554 5.88582 9.15246 5.86396 8.87057C5.8421 8.58867 5.75399 8.31592 5.6068 8.07451C4.62764 6.46722 6.46722 4.62659 8.07555 5.60576C9.11722 6.23909 10.4672 5.67868 10.7547 4.49639C11.1985 2.66722 13.8006 2.66722 14.2443 4.49639C14.3109 4.77118 14.4414 5.02636 14.6253 5.24118C14.8091 5.45599 15.0411 5.62436 15.3023 5.73258C15.5635 5.8408 15.8466 5.88581 16.1285 5.86396C16.4104 5.8421 16.6831 5.75399 16.9245 5.6068C18.5318 4.62764 20.3724 6.46722 19.3933 8.07555C19.2463 8.31686 19.1583 8.58945 19.1365 8.87115C19.1147 9.15285 19.1597 9.43573 19.2678 9.69678C19.3759 9.95783 19.544 10.1897 19.7586 10.3735C19.9732 10.5574 20.2281 10.688 20.5026 10.7547C21.6276 11.0276 22.061 12.1172 21.8016 13.0183" stroke="#2A3547" stroke-width="1.94167" stroke-linecap="round" stroke-linejoin="round"/>
<path d="M16.6665 19.791H22.9165" stroke="#2A3547" stroke-width="1.94167" stroke-linecap="round" stroke-linejoin="round"/>
<path d="M19.791 16.6665V22.9165" stroke="#2A3547" stroke-width="1.94167" stroke-linecap="round" stroke-linejoin="round"/>
<path d="M9.37585 12.5007C9.37585 13.3295 9.70509 14.1244 10.2911 14.7104C10.8772 15.2965 11.6721 15.6257 12.5009 15.6257C13.3297 15.6257 14.1245 15.2965 14.7106 14.7104C15.2966 14.1244 15.6259 13.3295 15.6259 12.5007C15.6259 11.6719 15.2966 10.8771 14.7106 10.291C14.1245 9.70497 13.3297 9.37573 12.5009 9.37573C11.6721 9.37573 10.8772 9.70497 10.2911 10.291C9.70509 10.8771 9.37585 11.6719 9.37585 12.5007Z" stroke="#2A3547" stroke-width="1.94167" stroke-linecap="round" stroke-linejoin="round"/>
</svg>
