<svg width="25" height="25" viewBox="0 0 25 25" fill="none" xmlns="http://www.w3.org/2000/svg">
<path d="M13.022 21.8023C12.1199 22.0627 11.0282 21.6294 10.7553 20.5034C10.6887 20.2286 10.5582 19.9734 10.3744 19.7586C10.1905 19.5438 9.95857 19.3754 9.69736 19.2672C9.43615 19.159 9.15308 19.1139 8.87118 19.1358C8.58928 19.1577 8.31653 19.2458 8.07512 19.393C6.46783 20.3721 4.62721 18.5325 5.60637 16.9242C5.75335 16.6829 5.84132 16.4103 5.86313 16.1286C5.88493 15.8469 5.83996 15.564 5.73186 15.303C5.62377 15.0419 5.4556 14.8101 5.24103 14.6262C5.02646 14.4424 4.77154 14.3118 4.497 14.245C2.66783 13.8013 2.66783 11.1992 4.497 10.7555C4.77179 10.6889 5.02698 10.5583 5.24179 10.3745C5.4566 10.1907 5.62497 9.95869 5.73319 9.69748C5.84141 9.43627 5.88643 9.1532 5.86457 8.8713C5.84271 8.58941 5.7546 8.31665 5.60741 8.07524C4.62825 6.46795 6.46783 4.62733 8.07616 5.60649C9.11783 6.23983 10.4678 5.67941 10.7553 4.49712C11.1991 2.66795 13.8012 2.66795 14.2449 4.49712C14.3115 4.77191 14.442 5.0271 14.6259 5.24191C14.8097 5.45672 15.0417 5.62509 15.3029 5.73331C15.5641 5.84153 15.8472 5.88655 16.1291 5.86469C16.411 5.84283 16.6837 5.75473 16.9251 5.60754C18.5324 4.62837 20.373 6.46795 19.3939 8.07629C19.2469 8.31759 19.1589 8.59018 19.1371 8.87188C19.1153 9.15359 19.1603 9.43646 19.2684 9.69752C19.3765 9.95857 19.5446 10.1904 19.7592 10.3743C19.9738 10.5581 20.2287 10.6887 20.5032 10.7555C21.622 11.0263 22.0553 12.1055 21.8074 13.0034" stroke="#2A3547" stroke-width="2" stroke-linecap="round" stroke-linejoin="round"/>
<path d="M19.7911 22.916V16.666" stroke="#2A3547" stroke-width="2" stroke-linecap="round" stroke-linejoin="round"/>
<path d="M22.916 19.791L19.791 16.666L16.666 19.791" stroke="#2A3547" stroke-width="2" stroke-linecap="round" stroke-linejoin="round"/>
<path d="M9.37537 12.5005C9.37537 13.3293 9.70461 14.1241 10.2907 14.7102C10.8767 15.2962 11.6716 15.6255 12.5004 15.6255C13.3292 15.6255 14.124 15.2962 14.7101 14.7102C15.2961 14.1241 15.6254 13.3293 15.6254 12.5005C15.6254 11.6717 15.2961 10.8768 14.7101 10.2908C14.124 9.70473 13.3292 9.37549 12.5004 9.37549C11.6716 9.37549 10.8767 9.70473 10.2907 10.2908C9.70461 10.8768 9.37537 11.6717 9.37537 12.5005Z" stroke="#2A3547" stroke-width="2" stroke-linecap="round" stroke-linejoin="round"/>
</svg>
