<svg width="25" height="26" viewBox="0 0 25 26" fill="none" xmlns="http://www.w3.org/2000/svg">
<path d="M4.27246 7.78157H20.112" stroke="#2A3547" stroke-width="2" stroke-linecap="round" stroke-linejoin="round"/>
<path d="M10.2122 11.9483V18.1983" stroke="#2A3547" stroke-width="2" stroke-linecap="round" stroke-linejoin="round"/>
<path d="M14.1721 11.9483V18.1983" stroke="#2A3547" stroke-width="2" stroke-linecap="round" stroke-linejoin="round"/>
<path d="M5.26245 7.78157L6.25242 20.2816C6.25242 20.8341 6.46102 21.364 6.83233 21.7547C7.20364 22.1454 7.70724 22.3649 8.23236 22.3649H16.1521C16.6772 22.3649 17.1808 22.1454 17.5521 21.7547C17.9234 21.364 18.132 20.8341 18.132 20.2816L19.122 7.78157" stroke="#2A3547" stroke-width="2" stroke-linecap="round" stroke-linejoin="round"/>
<path d="M9.22217 7.78158V4.65658C9.22217 4.38031 9.32647 4.11536 9.51212 3.92001C9.69778 3.72466 9.94958 3.61491 10.2121 3.61491H14.172C14.4346 3.61491 14.6864 3.72466 14.872 3.92001C15.0577 4.11536 15.162 4.38031 15.162 4.65658V7.78158" stroke="#2A3547" stroke-width="2" stroke-linecap="round" stroke-linejoin="round"/>
</svg>
