<svg width="25" height="25" viewBox="0 0 25 25" fill="none" xmlns="http://www.w3.org/2000/svg">
<path d="M12.5001 21.8752C17.6778 21.8752 21.8751 17.6779 21.8751 12.5002C21.8751 7.32257 17.6778 3.12524 12.5001 3.12524C7.32245 3.12524 3.12512 7.32257 3.12512 12.5002C3.12512 17.6779 7.32245 21.8752 12.5001 21.8752Z" stroke="#2A3547" stroke-width="2" stroke-linecap="round" stroke-linejoin="round"/>
<path d="M12.5004 13.542C14.2263 13.542 15.6254 12.1429 15.6254 10.417C15.6254 8.6911 14.2263 7.29199 12.5004 7.29199C10.7745 7.29199 9.37537 8.6911 9.37537 10.417C9.37537 12.1429 10.7745 13.542 12.5004 13.542Z" stroke="#2A3547" stroke-width="2" stroke-linecap="round" stroke-linejoin="round"/>
<path d="M6.42529 19.6337C6.68311 18.7756 7.21068 18.0235 7.92972 17.4889C8.64876 16.9543 9.52097 16.6658 10.417 16.666H14.5836C15.4808 16.6657 16.3541 16.955 17.0736 17.4908C17.7932 18.0266 18.3206 18.7804 18.5774 19.64" stroke="#2A3547" stroke-width="2" stroke-linecap="round" stroke-linejoin="round"/>
</svg>
